  <svg
    id="\u0421\u043B\u043E\u0439_1"
    xmlns="http://www.w3.org/2000/svg"
    xmlnsXlink="http://www.w3.org/1999/xlink"
    x="0px"
    y="0px"
    viewBox="0 0 30 40"
    xmlSpace="preserve"
  >
    <style type="text/css">
      {
        '\n\t.st0{fill-rule:evenodd;clip-rule:evenodd;fill:url(#SVGID_1_);}\n\t.st1{fill-rule:evenodd;clip-rule:evenodd;fill:#680080;}\n\t.st2{fill-rule:evenodd;clip-rule:evenodd;fill:#BE7ED7;}\n\t.st3{fill:#FFFFFF;}\n'
      }
    </style>
    <g id="BS_logo.psd_1_">
      <g id="\u0413\u0440\u0443\u043F\u043F\u0430_3_1_">
        <g id="\u0413\u0440\u0443\u043F\u043F\u0430_4_1_">
          <linearGradient
            id="SVGID_1_"
            gradientUnits="userSpaceOnUse"
            x1={29.1793}
            y1={24.3967}
            x2={0.05964075}
            y2={26.9443}
          >
            <stop
              offset={0.5307}
              style={{
                stopColor: '#BE7ED7',
              }}
            />
            <stop
              offset={1}
              style={{
                stopColor: '#9817D8',
              }}
            />
          </linearGradient>
          <path
            className="st0"
            d="M0,14.6h5.7c0,0,0,11.2,0,11.2c0.1,4.8,4,8.6,8.9,8.6c4.9,0,8.9-3.9,8.9-8.8c0-4.8-3.9-8.6-8.7-8.8 c-0.1,0-0.2,0-0.2,0c-1.6,0-2.8-1.2-2.8-2.8c0-1.5,1.3-2.8,2.8-2.8c0,0,0.1,0,0.2,0c8,0.1,14.4,6.5,14.4,14.3 c0,7.9-6.5,14.3-14.6,14.3C6.5,40,0,33.6,0,25.6C0,23.7,0,14.6,0,14.6z"
          />
          <path
            className="st1"
            d="M0,14.8c0,0-0.1,5,2.1,8.5c2.3,3.7,4,4.6,4,4.6s-0.3-2-0.3-3.4C5.8,23.2,0,14.8,0,14.8z"
          />
          <path
            className="st2"
            d="M28.1,19.9c0,0.1-0.1,0.2-0.1,0.2s-0.8-1.8-1.9-3.2c-1.1-1.5-2.6-2.5-2.6-2.5s0-0.1,0-0.1 c-0.1-4.8-4-8.6-8.9-8.6c-4.9,0-8.9,3.9-8.9,8.8c0,4.8,3.9,8.6,8.7,8.8c0.1,0,0.2,0,0.2,0c1.6,0,2.8,1.2,2.8,2.8 c0,1.5-1.3,2.8-2.8,2.8c0,0-0.1,0-0.2,0C6.4,28.6,0,22.2,0,14.3C0,6.4,6.5,0,14.6,0c8.1,0,14.6,6.4,14.6,14.3 C29.2,16.3,28.8,18.2,28.1,19.9z"
          />
          <path
            className="st1"
            d="M28,20.1c0,0-0.8-1.8-1.9-3.2c-1.1-1.5-2.6-2.5-2.6-2.5s0-0.1,0-0.1c0-0.8-0.1-1.5-0.3-2.2c0,0,0-0.1,0-0.1 s2.1,2.2,3.1,4.1C27.9,19.2,28,20.1,28,20.1z"
          />
        </g>
      </g>
    </g>
  </svg>